<svg fill="none" height="21" width="68" xmlns="http://www.w3.org/2000/svg"><g fill="#0ad9c6"><path d="M13.364 0v20.046H10.07V5.822L8.973 7.207 6.825 9.975l-.095.096-.144-.096L4.44 7.207l-1.1-1.432v14.27H0V0h3.34l3.39 4.295L10.07 0zm-5.06 10.07l-.095-.095z"/><path d="M8.448 9.975l-.096.095h-.047zm29.762-4.36l-9.128 6.701 2.114 2.878 9.126-6.701z"/><path d="M26.667 3c-3.864 0-7.043 3.13-7.043 7.043 0 3.864 3.13 7.043 7.043 7.043 3.864 0 7.043-3.13 7.043-7.043C33.71 6.18 30.532 3 26.668 3zm0 10.271a3.225 3.225 0 01-3.228-3.228c0-1.81 1.468-3.228 3.228-3.228s3.228 1.467 3.228 3.228c0 1.76-1.467 3.228-3.228 3.228zM43.64 3c-3.864 0-7.044 3.13-7.044 7.043 0 3.864 3.13 7.043 7.044 7.043 3.864 0 7.043-3.13 7.043-7.043C50.633 6.18 47.503 3 43.64 3zm0 10.271a3.225 3.225 0 01-3.228-3.228c0-1.81 1.467-3.228 3.228-3.228s3.228 1.467 3.228 3.228c0 1.76-1.468 3.228-3.228 3.228zM67.598.239v20.045h-3.341V9.88L61.44 7.207l-2.1-2.052v15.13H56V.238h3.341l3.913 3.77 1.003.955V.239z"/><path d="M37 3h6v4h-6z"/></g></svg>